<mxfile host="app.diagrams.net" modified="2020-11-18T04:21:16.365Z" agent="5.0 (X11; Linux x86_64) AppleWebKit/537.36 (KHTML, like Gecko) Chrome/85.0.4183.102 Safari/537.36" etag="5C1AUrz1XWUL5jcF_p4l" version="13.9.9" type="github">
  <diagram id="wMIRcGLIX1GdRkyV86bV" name="Client Component Heirarchy">
    <mxGraphModel dx="1781" dy="875" grid="1" gridSize="10" guides="1" tooltips="1" connect="1" arrows="1" fold="1" page="1" pageScale="1" pageWidth="850" pageHeight="1100" math="0" shadow="0">
      <root>
        <mxCell id="0" />
        <mxCell id="1" parent="0" />
        <mxCell id="79Ni32l7-_GGTcahSO0a-2" style="edgeStyle=orthogonalEdgeStyle;rounded=0;orthogonalLoop=1;jettySize=auto;html=1;exitX=0;exitY=1;exitDx=0;exitDy=0;entryX=0.5;entryY=0;entryDx=0;entryDy=0;" parent="1" source="79Ni32l7-_GGTcahSO0a-6" target="79Ni32l7-_GGTcahSO0a-8" edge="1">
          <mxGeometry relative="1" as="geometry" />
        </mxCell>
        <mxCell id="79Ni32l7-_GGTcahSO0a-3" style="edgeStyle=orthogonalEdgeStyle;rounded=0;orthogonalLoop=1;jettySize=auto;html=1;exitX=0.25;exitY=1;exitDx=0;exitDy=0;entryX=0.5;entryY=0;entryDx=0;entryDy=0;" parent="1" source="79Ni32l7-_GGTcahSO0a-6" target="79Ni32l7-_GGTcahSO0a-9" edge="1">
          <mxGeometry relative="1" as="geometry">
            <Array as="points">
              <mxPoint x="330" y="150" />
              <mxPoint x="260" y="150" />
            </Array>
          </mxGeometry>
        </mxCell>
        <mxCell id="79Ni32l7-_GGTcahSO0a-4" style="edgeStyle=orthogonalEdgeStyle;rounded=0;orthogonalLoop=1;jettySize=auto;html=1;exitX=1;exitY=1;exitDx=0;exitDy=0;entryX=0.5;entryY=0;entryDx=0;entryDy=0;" parent="1" source="79Ni32l7-_GGTcahSO0a-6" target="79Ni32l7-_GGTcahSO0a-11" edge="1">
          <mxGeometry relative="1" as="geometry" />
        </mxCell>
        <mxCell id="79Ni32l7-_GGTcahSO0a-5" style="edgeStyle=orthogonalEdgeStyle;rounded=0;orthogonalLoop=1;jettySize=auto;html=1;exitX=0.75;exitY=1;exitDx=0;exitDy=0;entryX=0.5;entryY=0;entryDx=0;entryDy=0;" parent="1" source="79Ni32l7-_GGTcahSO0a-6" target="79Ni32l7-_GGTcahSO0a-13" edge="1">
          <mxGeometry relative="1" as="geometry">
            <Array as="points">
              <mxPoint x="380" y="150" />
              <mxPoint x="430" y="150" />
            </Array>
          </mxGeometry>
        </mxCell>
        <mxCell id="SNinnTlMiJOWfoq2gWIb-13" style="edgeStyle=orthogonalEdgeStyle;rounded=0;orthogonalLoop=1;jettySize=auto;html=1;fontColor=#FF0000;entryX=0.5;entryY=0;entryDx=0;entryDy=0;" parent="1" source="79Ni32l7-_GGTcahSO0a-6" target="79Ni32l7-_GGTcahSO0a-10" edge="1">
          <mxGeometry relative="1" as="geometry">
            <mxPoint x="260" y="270" as="targetPoint" />
            <Array as="points">
              <mxPoint x="350" y="250" />
              <mxPoint x="260" y="250" />
            </Array>
          </mxGeometry>
        </mxCell>
        <mxCell id="79Ni32l7-_GGTcahSO0a-6" value="App" style="rounded=1;whiteSpace=wrap;html=1;" parent="1" vertex="1">
          <mxGeometry x="290" y="20" width="120" height="60" as="geometry" />
        </mxCell>
        <mxCell id="79Ni32l7-_GGTcahSO0a-7" value="&lt;font style=&quot;font-size: 18px&quot;&gt;&lt;font&gt;Component Hierarchy &amp;amp;&lt;br&gt;State Changes&lt;br&gt;&lt;/font&gt;&amp;nbsp;Sprint 4&amp;nbsp; -&amp;nbsp; t18 progRAMmers&lt;/font&gt;" style="text;html=1;align=center;verticalAlign=middle;resizable=0;points=[];autosize=1;" parent="1" vertex="1">
          <mxGeometry x="540" y="15" width="250" height="50" as="geometry" />
        </mxCell>
        <mxCell id="79Ni32l7-_GGTcahSO0a-8" value="Header" style="rounded=1;whiteSpace=wrap;html=1;" parent="1" vertex="1">
          <mxGeometry x="40" y="170" width="120" height="60" as="geometry" />
        </mxCell>
        <mxCell id="79Ni32l7-_GGTcahSO0a-9" value="About" style="rounded=1;whiteSpace=wrap;html=1;" parent="1" vertex="1">
          <mxGeometry x="200" y="170" width="120" height="60" as="geometry" />
        </mxCell>
        <mxCell id="79Ni32l7-_GGTcahSO0a-38" style="edgeStyle=orthogonalEdgeStyle;rounded=0;orthogonalLoop=1;jettySize=auto;html=1;exitX=0.5;exitY=1;exitDx=0;exitDy=0;" parent="1" source="79Ni32l7-_GGTcahSO0a-10" target="79Ni32l7-_GGTcahSO0a-37" edge="1">
          <mxGeometry relative="1" as="geometry" />
        </mxCell>
        <mxCell id="79Ni32l7-_GGTcahSO0a-39" style="edgeStyle=orthogonalEdgeStyle;rounded=0;orthogonalLoop=1;jettySize=auto;html=1;exitX=0.5;exitY=1;exitDx=0;exitDy=0;" parent="1" source="79Ni32l7-_GGTcahSO0a-10" target="79Ni32l7-_GGTcahSO0a-36" edge="1">
          <mxGeometry relative="1" as="geometry" />
        </mxCell>
        <mxCell id="79Ni32l7-_GGTcahSO0a-41" style="edgeStyle=orthogonalEdgeStyle;rounded=0;orthogonalLoop=1;jettySize=auto;html=1;exitX=0.5;exitY=1;exitDx=0;exitDy=0;entryX=0.5;entryY=0;entryDx=0;entryDy=0;" parent="1" source="79Ni32l7-_GGTcahSO0a-10" target="79Ni32l7-_GGTcahSO0a-40" edge="1">
          <mxGeometry relative="1" as="geometry" />
        </mxCell>
        <mxCell id="79Ni32l7-_GGTcahSO0a-10" value="Atlas" style="rounded=1;whiteSpace=wrap;html=1;" parent="1" vertex="1">
          <mxGeometry x="200" y="437.5" width="120" height="60" as="geometry" />
        </mxCell>
        <mxCell id="79Ni32l7-_GGTcahSO0a-11" value="Footer" style="rounded=1;whiteSpace=wrap;html=1;" parent="1" vertex="1">
          <mxGeometry x="540" y="170" width="120" height="60" as="geometry" />
        </mxCell>
        <mxCell id="79Ni32l7-_GGTcahSO0a-12" style="edgeStyle=orthogonalEdgeStyle;rounded=0;orthogonalLoop=1;jettySize=auto;html=1;exitX=0.5;exitY=1;exitDx=0;exitDy=0;entryX=0.5;entryY=0;entryDx=0;entryDy=0;" parent="1" source="79Ni32l7-_GGTcahSO0a-13" target="79Ni32l7-_GGTcahSO0a-10" edge="1">
          <mxGeometry relative="1" as="geometry" />
        </mxCell>
        <mxCell id="79Ni32l7-_GGTcahSO0a-13" value="Geolocation API" style="rounded=1;whiteSpace=wrap;html=1;" parent="1" vertex="1">
          <mxGeometry x="370" y="170" width="120" height="60" as="geometry" />
        </mxCell>
        <mxCell id="79Ni32l7-_GGTcahSO0a-15" style="edgeStyle=orthogonalEdgeStyle;rounded=0;orthogonalLoop=1;jettySize=auto;html=1;exitX=0;exitY=0.5;exitDx=0;exitDy=0;entryX=1;entryY=0.5;entryDx=0;entryDy=0;shape=link;" parent="1" target="79Ni32l7-_GGTcahSO0a-10" edge="1">
          <mxGeometry relative="1" as="geometry">
            <mxPoint x="770" y="440" as="sourcePoint" />
            <Array as="points">
              <mxPoint x="545" y="440" />
              <mxPoint x="545" y="468" />
            </Array>
          </mxGeometry>
        </mxCell>
        <mxCell id="79Ni32l7-_GGTcahSO0a-20" style="edgeStyle=orthogonalEdgeStyle;rounded=0;orthogonalLoop=1;jettySize=auto;html=1;exitX=0.5;exitY=1;exitDx=0;exitDy=0;entryX=0.5;entryY=0;entryDx=0;entryDy=0;shape=flexArrow;" parent="1" source="79Ni32l7-_GGTcahSO0a-21" target="79Ni32l7-_GGTcahSO0a-23" edge="1">
          <mxGeometry relative="1" as="geometry" />
        </mxCell>
        <mxCell id="79Ni32l7-_GGTcahSO0a-21" value="Component Class" style="rounded=0;whiteSpace=wrap;html=1;dashed=1;" parent="1" vertex="1">
          <mxGeometry x="560" y="260" width="120" height="40" as="geometry" />
        </mxCell>
        <mxCell id="79Ni32l7-_GGTcahSO0a-22" style="edgeStyle=orthogonalEdgeStyle;rounded=0;orthogonalLoop=1;jettySize=auto;html=1;exitX=0.5;exitY=1;exitDx=0;exitDy=0;entryX=0.5;entryY=0;entryDx=0;entryDy=0;" parent="1" source="79Ni32l7-_GGTcahSO0a-23" target="79Ni32l7-_GGTcahSO0a-10" edge="1">
          <mxGeometry relative="1" as="geometry" />
        </mxCell>
        <mxCell id="79Ni32l7-_GGTcahSO0a-23" value="Atlas Class" style="rounded=0;whiteSpace=wrap;html=1;dashed=1;" parent="1" vertex="1">
          <mxGeometry x="560" y="350" width="120" height="40" as="geometry" />
        </mxCell>
        <mxCell id="79Ni32l7-_GGTcahSO0a-24" value="Extension" style="text;html=1;strokeColor=none;fillColor=none;align=center;verticalAlign=middle;whiteSpace=wrap;rounded=0;" parent="1" vertex="1">
          <mxGeometry x="640" y="310" width="40" height="20" as="geometry" />
        </mxCell>
        <mxCell id="79Ni32l7-_GGTcahSO0a-34" value="Coordinate Converter&lt;br&gt;Class" style="rounded=1;whiteSpace=wrap;html=1;" parent="1" vertex="1">
          <mxGeometry x="200" y="710" width="120" height="60" as="geometry" />
        </mxCell>
        <mxCell id="79Ni32l7-_GGTcahSO0a-44" style="edgeStyle=orthogonalEdgeStyle;rounded=0;orthogonalLoop=1;jettySize=auto;html=1;exitX=0.5;exitY=1;exitDx=0;exitDy=0;" parent="1" source="79Ni32l7-_GGTcahSO0a-36" target="79Ni32l7-_GGTcahSO0a-34" edge="1">
          <mxGeometry relative="1" as="geometry" />
        </mxCell>
        <mxCell id="79Ni32l7-_GGTcahSO0a-36" value="Find Request" style="rounded=1;whiteSpace=wrap;html=1;" parent="1" vertex="1">
          <mxGeometry x="370" y="580" width="120" height="60" as="geometry" />
        </mxCell>
        <mxCell id="79Ni32l7-_GGTcahSO0a-42" style="edgeStyle=orthogonalEdgeStyle;rounded=0;orthogonalLoop=1;jettySize=auto;html=1;exitX=0.5;exitY=1;exitDx=0;exitDy=0;" parent="1" source="79Ni32l7-_GGTcahSO0a-37" target="79Ni32l7-_GGTcahSO0a-34" edge="1">
          <mxGeometry relative="1" as="geometry" />
        </mxCell>
        <mxCell id="SNinnTlMiJOWfoq2gWIb-14" style="edgeStyle=orthogonalEdgeStyle;rounded=0;orthogonalLoop=1;jettySize=auto;html=1;exitX=0.5;exitY=1;exitDx=0;exitDy=0;fontColor=#FF0000;" parent="1" source="79Ni32l7-_GGTcahSO0a-37" target="SNinnTlMiJOWfoq2gWIb-9" edge="1">
          <mxGeometry relative="1" as="geometry" />
        </mxCell>
        <mxCell id="79Ni32l7-_GGTcahSO0a-37" value="Trip Request" style="rounded=1;whiteSpace=wrap;html=1;" parent="1" vertex="1">
          <mxGeometry x="20" y="580" width="120" height="60" as="geometry" />
        </mxCell>
        <mxCell id="79Ni32l7-_GGTcahSO0a-43" style="edgeStyle=orthogonalEdgeStyle;rounded=0;orthogonalLoop=1;jettySize=auto;html=1;exitX=0.5;exitY=1;exitDx=0;exitDy=0;entryX=0.5;entryY=0;entryDx=0;entryDy=0;" parent="1" source="79Ni32l7-_GGTcahSO0a-40" target="79Ni32l7-_GGTcahSO0a-34" edge="1">
          <mxGeometry relative="1" as="geometry" />
        </mxCell>
        <mxCell id="79Ni32l7-_GGTcahSO0a-40" value="Distance Request" style="rounded=1;whiteSpace=wrap;html=1;" parent="1" vertex="1">
          <mxGeometry x="200" y="580" width="120" height="60" as="geometry" />
        </mxCell>
        <mxCell id="79Ni32l7-_GGTcahSO0a-73" value="" style="shape=table;html=1;whiteSpace=wrap;startSize=0;container=1;collapsible=0;childLayout=tableLayout;" parent="1" vertex="1">
          <mxGeometry x="770" y="260" width="900" height="850" as="geometry" />
        </mxCell>
        <mxCell id="79Ni32l7-_GGTcahSO0a-74" value="" style="shape=partialRectangle;html=1;whiteSpace=wrap;collapsible=0;dropTarget=0;pointerEvents=0;fillColor=none;top=0;left=0;bottom=0;right=0;points=[[0,0.5],[1,0.5]];portConstraint=eastwest;" parent="79Ni32l7-_GGTcahSO0a-73" vertex="1">
          <mxGeometry width="900" height="40" as="geometry" />
        </mxCell>
        <mxCell id="79Ni32l7-_GGTcahSO0a-75" value="&lt;b&gt;State Variables:&lt;/b&gt;" style="shape=partialRectangle;html=1;whiteSpace=wrap;connectable=0;fillColor=none;top=0;left=0;bottom=0;right=0;overflow=hidden;" parent="79Ni32l7-_GGTcahSO0a-74" vertex="1">
          <mxGeometry width="200" height="40" as="geometry" />
        </mxCell>
        <mxCell id="79Ni32l7-_GGTcahSO0a-89" value="Data Type" style="shape=partialRectangle;html=1;whiteSpace=wrap;connectable=0;fillColor=none;top=0;left=0;bottom=0;right=0;overflow=hidden;fontStyle=1" parent="79Ni32l7-_GGTcahSO0a-74" vertex="1">
          <mxGeometry x="200" width="100" height="40" as="geometry" />
        </mxCell>
        <mxCell id="79Ni32l7-_GGTcahSO0a-138" value="Default Value:" style="shape=partialRectangle;html=1;whiteSpace=wrap;connectable=0;fillColor=none;top=0;left=0;bottom=0;right=0;overflow=hidden;fontStyle=1" parent="79Ni32l7-_GGTcahSO0a-74" vertex="1">
          <mxGeometry x="300" width="100" height="40" as="geometry" />
        </mxCell>
        <mxCell id="79Ni32l7-_GGTcahSO0a-76" value="&lt;b&gt;Line Number State Set:&lt;/b&gt;" style="shape=partialRectangle;html=1;whiteSpace=wrap;connectable=0;fillColor=none;top=0;left=0;bottom=0;right=0;overflow=hidden;" parent="79Ni32l7-_GGTcahSO0a-74" vertex="1">
          <mxGeometry x="400" width="100" height="40" as="geometry" />
        </mxCell>
        <mxCell id="79Ni32l7-_GGTcahSO0a-86" value="&lt;b&gt;Set State Value:&lt;/b&gt;" style="shape=partialRectangle;html=1;whiteSpace=wrap;connectable=0;fillColor=none;top=0;left=0;bottom=0;right=0;overflow=hidden;" parent="79Ni32l7-_GGTcahSO0a-74" vertex="1">
          <mxGeometry x="500" width="200" height="40" as="geometry" />
        </mxCell>
        <mxCell id="79Ni32l7-_GGTcahSO0a-167" value="&lt;b&gt;Notes:&lt;/b&gt;" style="shape=partialRectangle;html=1;whiteSpace=wrap;connectable=0;fillColor=none;top=0;left=0;bottom=0;right=0;overflow=hidden;" parent="79Ni32l7-_GGTcahSO0a-74" vertex="1">
          <mxGeometry x="700" width="200" height="40" as="geometry" />
        </mxCell>
        <mxCell id="79Ni32l7-_GGTcahSO0a-78" value="" style="shape=partialRectangle;html=1;whiteSpace=wrap;collapsible=0;dropTarget=0;pointerEvents=0;fillColor=none;top=0;left=0;bottom=0;right=0;points=[[0,0.5],[1,0.5]];portConstraint=eastwest;" parent="79Ni32l7-_GGTcahSO0a-73" vertex="1">
          <mxGeometry y="40" width="900" height="40" as="geometry" />
        </mxCell>
        <mxCell id="79Ni32l7-_GGTcahSO0a-79" value="markerPosition" style="shape=partialRectangle;html=1;whiteSpace=wrap;connectable=0;fillColor=none;top=0;left=0;bottom=0;right=0;overflow=hidden;" parent="79Ni32l7-_GGTcahSO0a-78" vertex="1">
          <mxGeometry width="200" height="40" as="geometry" />
        </mxCell>
        <mxCell id="79Ni32l7-_GGTcahSO0a-90" value="Object" style="shape=partialRectangle;html=1;whiteSpace=wrap;connectable=0;fillColor=none;top=0;left=0;bottom=0;right=0;overflow=hidden;" parent="79Ni32l7-_GGTcahSO0a-78" vertex="1">
          <mxGeometry x="200" width="100" height="40" as="geometry" />
        </mxCell>
        <mxCell id="79Ni32l7-_GGTcahSO0a-139" value="null" style="shape=partialRectangle;html=1;whiteSpace=wrap;connectable=0;fillColor=none;top=0;left=0;bottom=0;right=0;overflow=hidden;" parent="79Ni32l7-_GGTcahSO0a-78" vertex="1">
          <mxGeometry x="300" width="100" height="40" as="geometry" />
        </mxCell>
        <mxCell id="79Ni32l7-_GGTcahSO0a-80" value="127&lt;br&gt;244" style="shape=partialRectangle;html=1;whiteSpace=wrap;connectable=0;fillColor=none;top=0;left=0;bottom=0;right=0;overflow=hidden;" parent="79Ni32l7-_GGTcahSO0a-78" vertex="1">
          <mxGeometry x="400" width="100" height="40" as="geometry" />
        </mxCell>
        <mxCell id="79Ni32l7-_GGTcahSO0a-87" value="most recent trip addition lat &amp;amp; long&lt;br&gt;map click lat and long" style="shape=partialRectangle;html=1;whiteSpace=wrap;connectable=0;fillColor=none;top=0;left=0;bottom=0;right=0;overflow=hidden;" parent="79Ni32l7-_GGTcahSO0a-78" vertex="1">
          <mxGeometry x="500" width="200" height="40" as="geometry" />
        </mxCell>
        <mxCell id="79Ni32l7-_GGTcahSO0a-168" style="shape=partialRectangle;html=1;whiteSpace=wrap;connectable=0;fillColor=none;top=0;left=0;bottom=0;right=0;overflow=hidden;" parent="79Ni32l7-_GGTcahSO0a-78" vertex="1">
          <mxGeometry x="700" width="200" height="40" as="geometry" />
        </mxCell>
        <mxCell id="79Ni32l7-_GGTcahSO0a-82" value="" style="shape=partialRectangle;html=1;whiteSpace=wrap;collapsible=0;dropTarget=0;pointerEvents=0;fillColor=none;top=0;left=0;bottom=0;right=0;points=[[0,0.5],[1,0.5]];portConstraint=eastwest;" parent="79Ni32l7-_GGTcahSO0a-73" vertex="1">
          <mxGeometry y="80" width="900" height="40" as="geometry" />
        </mxCell>
        <mxCell id="79Ni32l7-_GGTcahSO0a-83" value="singleLocationTrip" style="shape=partialRectangle;html=1;whiteSpace=wrap;connectable=0;fillColor=none;top=0;left=0;bottom=0;right=0;overflow=hidden;fontColor=#FF0000;fontStyle=1" parent="79Ni32l7-_GGTcahSO0a-82" vertex="1">
          <mxGeometry width="200" height="40" as="geometry" />
        </mxCell>
        <mxCell id="79Ni32l7-_GGTcahSO0a-91" value="array" style="shape=partialRectangle;html=1;whiteSpace=wrap;connectable=0;fillColor=none;top=0;left=0;bottom=0;right=0;overflow=hidden;fontColor=#FF0000;fontStyle=1" parent="79Ni32l7-_GGTcahSO0a-82" vertex="1">
          <mxGeometry x="200" width="100" height="40" as="geometry" />
        </mxCell>
        <mxCell id="79Ni32l7-_GGTcahSO0a-140" value="[[0,0], [0, 0]]" style="shape=partialRectangle;html=1;whiteSpace=wrap;connectable=0;fillColor=none;top=0;left=0;bottom=0;right=0;overflow=hidden;fontColor=#FF0000;fontStyle=1" parent="79Ni32l7-_GGTcahSO0a-82" vertex="1">
          <mxGeometry x="300" width="100" height="40" as="geometry" />
        </mxCell>
        <mxCell id="79Ni32l7-_GGTcahSO0a-84" value="&lt;span&gt;244&lt;/span&gt;" style="shape=partialRectangle;html=1;whiteSpace=wrap;connectable=0;fillColor=none;top=0;left=0;bottom=0;right=0;overflow=hidden;fontColor=#FF0000;fontStyle=1" parent="79Ni32l7-_GGTcahSO0a-82" vertex="1">
          <mxGeometry x="400" width="100" height="40" as="geometry" />
        </mxCell>
        <mxCell id="79Ni32l7-_GGTcahSO0a-88" value="map marker coordinates after click event" style="shape=partialRectangle;html=1;whiteSpace=wrap;connectable=0;fillColor=none;top=0;left=0;bottom=0;right=0;overflow=hidden;fontColor=#FF0000;fontStyle=1" parent="79Ni32l7-_GGTcahSO0a-82" vertex="1">
          <mxGeometry x="500" width="200" height="40" as="geometry" />
        </mxCell>
        <mxCell id="79Ni32l7-_GGTcahSO0a-169" value="&lt;span&gt;Need to delete&lt;/span&gt;" style="shape=partialRectangle;html=1;whiteSpace=wrap;connectable=0;fillColor=none;top=0;left=0;bottom=0;right=0;overflow=hidden;fontColor=#FF0000;fontStyle=1" parent="79Ni32l7-_GGTcahSO0a-82" vertex="1">
          <mxGeometry x="700" width="200" height="40" as="geometry" />
        </mxCell>
        <mxCell id="79Ni32l7-_GGTcahSO0a-103" style="shape=partialRectangle;html=1;whiteSpace=wrap;collapsible=0;dropTarget=0;pointerEvents=0;fillColor=none;top=0;left=0;bottom=0;right=0;points=[[0,0.5],[1,0.5]];portConstraint=eastwest;" parent="79Ni32l7-_GGTcahSO0a-73" vertex="1">
          <mxGeometry y="120" width="900" height="40" as="geometry" />
        </mxCell>
        <mxCell id="79Ni32l7-_GGTcahSO0a-104" value="markerCurrentLocation" style="shape=partialRectangle;html=1;whiteSpace=wrap;connectable=0;fillColor=none;top=0;left=0;bottom=0;right=0;overflow=hidden;fontStyle=0;" parent="79Ni32l7-_GGTcahSO0a-103" vertex="1">
          <mxGeometry width="200" height="40" as="geometry" />
        </mxCell>
        <mxCell id="79Ni32l7-_GGTcahSO0a-105" value="array" style="shape=partialRectangle;html=1;whiteSpace=wrap;connectable=0;fillColor=none;top=0;left=0;bottom=0;right=0;overflow=hidden;fontStyle=0;" parent="79Ni32l7-_GGTcahSO0a-103" vertex="1">
          <mxGeometry x="200" width="100" height="40" as="geometry" />
        </mxCell>
        <mxCell id="79Ni32l7-_GGTcahSO0a-141" value="[0, 0]" style="shape=partialRectangle;html=1;whiteSpace=wrap;connectable=0;fillColor=none;top=0;left=0;bottom=0;right=0;overflow=hidden;fontStyle=0;" parent="79Ni32l7-_GGTcahSO0a-103" vertex="1">
          <mxGeometry x="300" width="100" height="40" as="geometry" />
        </mxCell>
        <mxCell id="79Ni32l7-_GGTcahSO0a-106" value="70&lt;br&gt;" style="shape=partialRectangle;html=1;whiteSpace=wrap;connectable=0;fillColor=none;top=0;left=0;bottom=0;right=0;overflow=hidden;fontStyle=0;" parent="79Ni32l7-_GGTcahSO0a-103" vertex="1">
          <mxGeometry x="400" width="100" height="40" as="geometry" />
        </mxCell>
        <mxCell id="79Ni32l7-_GGTcahSO0a-107" value="markerLatLong (center of the map)" style="shape=partialRectangle;html=1;whiteSpace=wrap;connectable=0;fillColor=none;top=0;left=0;bottom=0;right=0;overflow=hidden;fontStyle=0;" parent="79Ni32l7-_GGTcahSO0a-103" vertex="1">
          <mxGeometry x="500" width="200" height="40" as="geometry" />
        </mxCell>
        <mxCell id="79Ni32l7-_GGTcahSO0a-170" style="shape=partialRectangle;html=1;whiteSpace=wrap;connectable=0;fillColor=none;top=0;left=0;bottom=0;right=0;overflow=hidden;fontStyle=0;" parent="79Ni32l7-_GGTcahSO0a-103" vertex="1">
          <mxGeometry x="700" width="200" height="40" as="geometry" />
        </mxCell>
        <mxCell id="WQFZDeMwcHJbhIOVfOHr-1" style="shape=partialRectangle;html=1;whiteSpace=wrap;collapsible=0;dropTarget=0;pointerEvents=0;fillColor=none;top=0;left=0;bottom=0;right=0;points=[[0,0.5],[1,0.5]];portConstraint=eastwest;" vertex="1" parent="79Ni32l7-_GGTcahSO0a-73">
          <mxGeometry y="160" width="900" height="40" as="geometry" />
        </mxCell>
        <mxCell id="WQFZDeMwcHJbhIOVfOHr-2" value="allTripMarkers" style="shape=partialRectangle;html=1;whiteSpace=wrap;connectable=0;fillColor=none;top=0;left=0;bottom=0;right=0;overflow=hidden;fontStyle=0;" vertex="1" parent="WQFZDeMwcHJbhIOVfOHr-1">
          <mxGeometry width="200" height="40" as="geometry" />
        </mxCell>
        <mxCell id="WQFZDeMwcHJbhIOVfOHr-3" value="array" style="shape=partialRectangle;html=1;whiteSpace=wrap;connectable=0;fillColor=none;top=0;left=0;bottom=0;right=0;overflow=hidden;fontStyle=0;" vertex="1" parent="WQFZDeMwcHJbhIOVfOHr-1">
          <mxGeometry x="200" width="100" height="40" as="geometry" />
        </mxCell>
        <mxCell id="WQFZDeMwcHJbhIOVfOHr-4" value="[ ]" style="shape=partialRectangle;html=1;whiteSpace=wrap;connectable=0;fillColor=none;top=0;left=0;bottom=0;right=0;overflow=hidden;fontStyle=0;" vertex="1" parent="WQFZDeMwcHJbhIOVfOHr-1">
          <mxGeometry x="300" width="100" height="40" as="geometry" />
        </mxCell>
        <mxCell id="WQFZDeMwcHJbhIOVfOHr-5" value="159" style="shape=partialRectangle;html=1;whiteSpace=wrap;connectable=0;fillColor=none;top=0;left=0;bottom=0;right=0;overflow=hidden;fontStyle=0;" vertex="1" parent="WQFZDeMwcHJbhIOVfOHr-1">
          <mxGeometry x="400" width="100" height="40" as="geometry" />
        </mxCell>
        <mxCell id="WQFZDeMwcHJbhIOVfOHr-6" value="current trip locations" style="shape=partialRectangle;html=1;whiteSpace=wrap;connectable=0;fillColor=none;top=0;left=0;bottom=0;right=0;overflow=hidden;fontStyle=0;" vertex="1" parent="WQFZDeMwcHJbhIOVfOHr-1">
          <mxGeometry x="500" width="200" height="40" as="geometry" />
        </mxCell>
        <mxCell id="WQFZDeMwcHJbhIOVfOHr-7" style="shape=partialRectangle;html=1;whiteSpace=wrap;connectable=0;fillColor=none;top=0;left=0;bottom=0;right=0;overflow=hidden;fontStyle=0;" vertex="1" parent="WQFZDeMwcHJbhIOVfOHr-1">
          <mxGeometry x="700" width="200" height="40" as="geometry" />
        </mxCell>
        <mxCell id="WQFZDeMwcHJbhIOVfOHr-8" style="shape=partialRectangle;html=1;whiteSpace=wrap;collapsible=0;dropTarget=0;pointerEvents=0;fillColor=none;top=0;left=0;bottom=0;right=0;points=[[0,0.5],[1,0.5]];portConstraint=eastwest;" vertex="1" parent="79Ni32l7-_GGTcahSO0a-73">
          <mxGeometry y="200" width="900" height="40" as="geometry" />
        </mxCell>
        <mxCell id="WQFZDeMwcHJbhIOVfOHr-9" value="tripLinesOptimized" style="shape=partialRectangle;html=1;whiteSpace=wrap;connectable=0;fillColor=none;top=0;left=0;bottom=0;right=0;overflow=hidden;fontStyle=0;" vertex="1" parent="WQFZDeMwcHJbhIOVfOHr-8">
          <mxGeometry width="200" height="40" as="geometry" />
        </mxCell>
        <mxCell id="WQFZDeMwcHJbhIOVfOHr-10" value="array" style="shape=partialRectangle;html=1;whiteSpace=wrap;connectable=0;fillColor=none;top=0;left=0;bottom=0;right=0;overflow=hidden;fontStyle=0;" vertex="1" parent="WQFZDeMwcHJbhIOVfOHr-8">
          <mxGeometry x="200" width="100" height="40" as="geometry" />
        </mxCell>
        <mxCell id="WQFZDeMwcHJbhIOVfOHr-11" value="[ ]" style="shape=partialRectangle;html=1;whiteSpace=wrap;connectable=0;fillColor=none;top=0;left=0;bottom=0;right=0;overflow=hidden;fontStyle=0;" vertex="1" parent="WQFZDeMwcHJbhIOVfOHr-8">
          <mxGeometry x="300" width="100" height="40" as="geometry" />
        </mxCell>
        <mxCell id="WQFZDeMwcHJbhIOVfOHr-12" value="179" style="shape=partialRectangle;html=1;whiteSpace=wrap;connectable=0;fillColor=none;top=0;left=0;bottom=0;right=0;overflow=hidden;fontStyle=0;" vertex="1" parent="WQFZDeMwcHJbhIOVfOHr-8">
          <mxGeometry x="400" width="100" height="40" as="geometry" />
        </mxCell>
        <mxCell id="WQFZDeMwcHJbhIOVfOHr-13" value="&lt;meta charset=&quot;utf-8&quot;&gt;&lt;span style=&quot;color: rgb(0, 0, 0); font-family: helvetica; font-size: 12px; font-style: normal; font-weight: 400; letter-spacing: normal; text-align: center; text-indent: 0px; text-transform: none; word-spacing: 0px; background-color: rgb(248, 249, 250); display: inline; float: none;&quot;&gt;current trip locations&lt;/span&gt;" style="shape=partialRectangle;html=1;whiteSpace=wrap;connectable=0;fillColor=none;top=0;left=0;bottom=0;right=0;overflow=hidden;fontStyle=0;" vertex="1" parent="WQFZDeMwcHJbhIOVfOHr-8">
          <mxGeometry x="500" width="200" height="40" as="geometry" />
        </mxCell>
        <mxCell id="WQFZDeMwcHJbhIOVfOHr-14" value="&lt;font color=&quot;#ff0000&quot;&gt;Appears to be redundant with allTripMarkers&lt;/font&gt;" style="shape=partialRectangle;html=1;whiteSpace=wrap;connectable=0;fillColor=none;top=0;left=0;bottom=0;right=0;overflow=hidden;fontStyle=0;" vertex="1" parent="WQFZDeMwcHJbhIOVfOHr-8">
          <mxGeometry x="700" width="200" height="40" as="geometry" />
        </mxCell>
        <mxCell id="WQFZDeMwcHJbhIOVfOHr-16" style="shape=partialRectangle;html=1;whiteSpace=wrap;collapsible=0;dropTarget=0;pointerEvents=0;fillColor=none;top=0;left=0;bottom=0;right=0;points=[[0,0.5],[1,0.5]];portConstraint=eastwest;" vertex="1" parent="79Ni32l7-_GGTcahSO0a-73">
          <mxGeometry y="240" width="900" height="40" as="geometry" />
        </mxCell>
        <mxCell id="WQFZDeMwcHJbhIOVfOHr-17" value="tripMarkerNames" style="shape=partialRectangle;html=1;whiteSpace=wrap;connectable=0;fillColor=none;top=0;left=0;bottom=0;right=0;overflow=hidden;fontStyle=0;" vertex="1" parent="WQFZDeMwcHJbhIOVfOHr-16">
          <mxGeometry width="200" height="40" as="geometry" />
        </mxCell>
        <mxCell id="WQFZDeMwcHJbhIOVfOHr-18" value="array" style="shape=partialRectangle;html=1;whiteSpace=wrap;connectable=0;fillColor=none;top=0;left=0;bottom=0;right=0;overflow=hidden;fontStyle=0;" vertex="1" parent="WQFZDeMwcHJbhIOVfOHr-16">
          <mxGeometry x="200" width="100" height="40" as="geometry" />
        </mxCell>
        <mxCell id="WQFZDeMwcHJbhIOVfOHr-19" value="[ ]" style="shape=partialRectangle;html=1;whiteSpace=wrap;connectable=0;fillColor=none;top=0;left=0;bottom=0;right=0;overflow=hidden;fontStyle=0;" vertex="1" parent="WQFZDeMwcHJbhIOVfOHr-16">
          <mxGeometry x="300" width="100" height="40" as="geometry" />
        </mxCell>
        <mxCell id="WQFZDeMwcHJbhIOVfOHr-20" value="159" style="shape=partialRectangle;html=1;whiteSpace=wrap;connectable=0;fillColor=none;top=0;left=0;bottom=0;right=0;overflow=hidden;fontStyle=0;" vertex="1" parent="WQFZDeMwcHJbhIOVfOHr-16">
          <mxGeometry x="400" width="100" height="40" as="geometry" />
        </mxCell>
        <mxCell id="WQFZDeMwcHJbhIOVfOHr-21" value="current trip markers plus a newest trip marker" style="shape=partialRectangle;html=1;whiteSpace=wrap;connectable=0;fillColor=none;top=0;left=0;bottom=0;right=0;overflow=hidden;fontStyle=0;" vertex="1" parent="WQFZDeMwcHJbhIOVfOHr-16">
          <mxGeometry x="500" width="200" height="40" as="geometry" />
        </mxCell>
        <mxCell id="WQFZDeMwcHJbhIOVfOHr-22" style="shape=partialRectangle;html=1;whiteSpace=wrap;connectable=0;fillColor=none;top=0;left=0;bottom=0;right=0;overflow=hidden;fontStyle=0;" vertex="1" parent="WQFZDeMwcHJbhIOVfOHr-16">
          <mxGeometry x="700" width="200" height="40" as="geometry" />
        </mxCell>
        <mxCell id="WQFZDeMwcHJbhIOVfOHr-23" style="shape=partialRectangle;html=1;whiteSpace=wrap;collapsible=0;dropTarget=0;pointerEvents=0;fillColor=none;top=0;left=0;bottom=0;right=0;points=[[0,0.5],[1,0.5]];portConstraint=eastwest;" vertex="1" parent="79Ni32l7-_GGTcahSO0a-73">
          <mxGeometry y="280" width="900" height="40" as="geometry" />
        </mxCell>
        <mxCell id="WQFZDeMwcHJbhIOVfOHr-24" value="firstDestination" style="shape=partialRectangle;html=1;whiteSpace=wrap;connectable=0;fillColor=none;top=0;left=0;bottom=0;right=0;overflow=hidden;fontStyle=0;" vertex="1" parent="WQFZDeMwcHJbhIOVfOHr-23">
          <mxGeometry width="200" height="40" as="geometry" />
        </mxCell>
        <mxCell id="WQFZDeMwcHJbhIOVfOHr-25" value="array" style="shape=partialRectangle;html=1;whiteSpace=wrap;connectable=0;fillColor=none;top=0;left=0;bottom=0;right=0;overflow=hidden;fontStyle=0;" vertex="1" parent="WQFZDeMwcHJbhIOVfOHr-23">
          <mxGeometry x="200" width="100" height="40" as="geometry" />
        </mxCell>
        <mxCell id="WQFZDeMwcHJbhIOVfOHr-26" value="[ ]" style="shape=partialRectangle;html=1;whiteSpace=wrap;connectable=0;fillColor=none;top=0;left=0;bottom=0;right=0;overflow=hidden;fontStyle=0;" vertex="1" parent="WQFZDeMwcHJbhIOVfOHr-23">
          <mxGeometry x="300" width="100" height="40" as="geometry" />
        </mxCell>
        <mxCell id="WQFZDeMwcHJbhIOVfOHr-27" value="203" style="shape=partialRectangle;html=1;whiteSpace=wrap;connectable=0;fillColor=none;top=0;left=0;bottom=0;right=0;overflow=hidden;fontStyle=0;" vertex="1" parent="WQFZDeMwcHJbhIOVfOHr-23">
          <mxGeometry x="400" width="100" height="40" as="geometry" />
        </mxCell>
        <mxCell id="WQFZDeMwcHJbhIOVfOHr-28" value="first destination on the trip" style="shape=partialRectangle;html=1;whiteSpace=wrap;connectable=0;fillColor=none;top=0;left=0;bottom=0;right=0;overflow=hidden;fontStyle=0;" vertex="1" parent="WQFZDeMwcHJbhIOVfOHr-23">
          <mxGeometry x="500" width="200" height="40" as="geometry" />
        </mxCell>
        <mxCell id="WQFZDeMwcHJbhIOVfOHr-29" style="shape=partialRectangle;html=1;whiteSpace=wrap;connectable=0;fillColor=none;top=0;left=0;bottom=0;right=0;overflow=hidden;fontStyle=0;" vertex="1" parent="WQFZDeMwcHJbhIOVfOHr-23">
          <mxGeometry x="700" width="200" height="40" as="geometry" />
        </mxCell>
        <mxCell id="WQFZDeMwcHJbhIOVfOHr-30" style="shape=partialRectangle;html=1;whiteSpace=wrap;collapsible=0;dropTarget=0;pointerEvents=0;fillColor=none;top=0;left=0;bottom=0;right=0;points=[[0,0.5],[1,0.5]];portConstraint=eastwest;" vertex="1" parent="79Ni32l7-_GGTcahSO0a-73">
          <mxGeometry y="320" width="900" height="40" as="geometry" />
        </mxCell>
        <mxCell id="WQFZDeMwcHJbhIOVfOHr-31" value="lastDestination" style="shape=partialRectangle;html=1;whiteSpace=wrap;connectable=0;fillColor=none;top=0;left=0;bottom=0;right=0;overflow=hidden;fontStyle=0;" vertex="1" parent="WQFZDeMwcHJbhIOVfOHr-30">
          <mxGeometry width="200" height="40" as="geometry" />
        </mxCell>
        <mxCell id="WQFZDeMwcHJbhIOVfOHr-32" value="array" style="shape=partialRectangle;html=1;whiteSpace=wrap;connectable=0;fillColor=none;top=0;left=0;bottom=0;right=0;overflow=hidden;fontStyle=0;" vertex="1" parent="WQFZDeMwcHJbhIOVfOHr-30">
          <mxGeometry x="200" width="100" height="40" as="geometry" />
        </mxCell>
        <mxCell id="WQFZDeMwcHJbhIOVfOHr-33" value="[ ]" style="shape=partialRectangle;html=1;whiteSpace=wrap;connectable=0;fillColor=none;top=0;left=0;bottom=0;right=0;overflow=hidden;fontStyle=0;" vertex="1" parent="WQFZDeMwcHJbhIOVfOHr-30">
          <mxGeometry x="300" width="100" height="40" as="geometry" />
        </mxCell>
        <mxCell id="WQFZDeMwcHJbhIOVfOHr-34" value="203" style="shape=partialRectangle;html=1;whiteSpace=wrap;connectable=0;fillColor=none;top=0;left=0;bottom=0;right=0;overflow=hidden;fontStyle=0;" vertex="1" parent="WQFZDeMwcHJbhIOVfOHr-30">
          <mxGeometry x="400" width="100" height="40" as="geometry" />
        </mxCell>
        <mxCell id="WQFZDeMwcHJbhIOVfOHr-35" value="last destination on the trip" style="shape=partialRectangle;html=1;whiteSpace=wrap;connectable=0;fillColor=none;top=0;left=0;bottom=0;right=0;overflow=hidden;fontStyle=0;" vertex="1" parent="WQFZDeMwcHJbhIOVfOHr-30">
          <mxGeometry x="500" width="200" height="40" as="geometry" />
        </mxCell>
        <mxCell id="WQFZDeMwcHJbhIOVfOHr-36" style="shape=partialRectangle;html=1;whiteSpace=wrap;connectable=0;fillColor=none;top=0;left=0;bottom=0;right=0;overflow=hidden;fontStyle=0;" vertex="1" parent="WQFZDeMwcHJbhIOVfOHr-30">
          <mxGeometry x="700" width="200" height="40" as="geometry" />
        </mxCell>
        <mxCell id="WQFZDeMwcHJbhIOVfOHr-37" style="shape=partialRectangle;html=1;whiteSpace=wrap;collapsible=0;dropTarget=0;pointerEvents=0;fillColor=none;top=0;left=0;bottom=0;right=0;points=[[0,0.5],[1,0.5]];portConstraint=eastwest;" vertex="1" parent="79Ni32l7-_GGTcahSO0a-73">
          <mxGeometry y="360" width="900" height="40" as="geometry" />
        </mxCell>
        <mxCell id="WQFZDeMwcHJbhIOVfOHr-38" value="numberOfTripMarkers" style="shape=partialRectangle;html=1;whiteSpace=wrap;connectable=0;fillColor=none;top=0;left=0;bottom=0;right=0;overflow=hidden;fontStyle=0;" vertex="1" parent="WQFZDeMwcHJbhIOVfOHr-37">
          <mxGeometry width="200" height="40" as="geometry" />
        </mxCell>
        <mxCell id="WQFZDeMwcHJbhIOVfOHr-39" value="integer" style="shape=partialRectangle;html=1;whiteSpace=wrap;connectable=0;fillColor=none;top=0;left=0;bottom=0;right=0;overflow=hidden;fontStyle=0;" vertex="1" parent="WQFZDeMwcHJbhIOVfOHr-37">
          <mxGeometry x="200" width="100" height="40" as="geometry" />
        </mxCell>
        <mxCell id="WQFZDeMwcHJbhIOVfOHr-40" value="0" style="shape=partialRectangle;html=1;whiteSpace=wrap;connectable=0;fillColor=none;top=0;left=0;bottom=0;right=0;overflow=hidden;fontStyle=0;" vertex="1" parent="WQFZDeMwcHJbhIOVfOHr-37">
          <mxGeometry x="300" width="100" height="40" as="geometry" />
        </mxCell>
        <mxCell id="WQFZDeMwcHJbhIOVfOHr-41" value="159" style="shape=partialRectangle;html=1;whiteSpace=wrap;connectable=0;fillColor=none;top=0;left=0;bottom=0;right=0;overflow=hidden;fontStyle=0;" vertex="1" parent="WQFZDeMwcHJbhIOVfOHr-37">
          <mxGeometry x="400" width="100" height="40" as="geometry" />
        </mxCell>
        <mxCell id="WQFZDeMwcHJbhIOVfOHr-42" value="number of trip markers plus 1" style="shape=partialRectangle;html=1;whiteSpace=wrap;connectable=0;fillColor=none;top=0;left=0;bottom=0;right=0;overflow=hidden;fontStyle=0;" vertex="1" parent="WQFZDeMwcHJbhIOVfOHr-37">
          <mxGeometry x="500" width="200" height="40" as="geometry" />
        </mxCell>
        <mxCell id="WQFZDeMwcHJbhIOVfOHr-43" style="shape=partialRectangle;html=1;whiteSpace=wrap;connectable=0;fillColor=none;top=0;left=0;bottom=0;right=0;overflow=hidden;fontStyle=0;" vertex="1" parent="WQFZDeMwcHJbhIOVfOHr-37">
          <mxGeometry x="700" width="200" height="40" as="geometry" />
        </mxCell>
        <mxCell id="79Ni32l7-_GGTcahSO0a-93" style="shape=partialRectangle;html=1;whiteSpace=wrap;collapsible=0;dropTarget=0;pointerEvents=0;fillColor=none;top=0;left=0;bottom=0;right=0;points=[[0,0.5],[1,0.5]];portConstraint=eastwest;" parent="79Ni32l7-_GGTcahSO0a-73" vertex="1">
          <mxGeometry y="400" width="900" height="40" as="geometry" />
        </mxCell>
        <mxCell id="79Ni32l7-_GGTcahSO0a-94" value="tripState" style="shape=partialRectangle;html=1;whiteSpace=wrap;connectable=0;fillColor=none;top=0;left=0;bottom=0;right=0;overflow=hidden;fontStyle=0;" parent="79Ni32l7-_GGTcahSO0a-93" vertex="1">
          <mxGeometry width="200" height="40" as="geometry" />
        </mxCell>
        <mxCell id="79Ni32l7-_GGTcahSO0a-95" value="boolean" style="shape=partialRectangle;html=1;whiteSpace=wrap;connectable=0;fillColor=none;top=0;left=0;bottom=0;right=0;overflow=hidden;fontStyle=0;" parent="79Ni32l7-_GGTcahSO0a-93" vertex="1">
          <mxGeometry x="200" width="100" height="40" as="geometry" />
        </mxCell>
        <mxCell id="79Ni32l7-_GGTcahSO0a-143" value="false" style="shape=partialRectangle;html=1;whiteSpace=wrap;connectable=0;fillColor=none;top=0;left=0;bottom=0;right=0;overflow=hidden;fontStyle=0;" parent="79Ni32l7-_GGTcahSO0a-93" vertex="1">
          <mxGeometry x="300" width="100" height="40" as="geometry" />
        </mxCell>
        <mxCell id="79Ni32l7-_GGTcahSO0a-96" value="280&lt;br&gt;431" style="shape=partialRectangle;html=1;whiteSpace=wrap;connectable=0;fillColor=none;top=0;left=0;bottom=0;right=0;overflow=hidden;fontStyle=0;" parent="79Ni32l7-_GGTcahSO0a-93" vertex="1">
          <mxGeometry x="400" width="100" height="40" as="geometry" />
        </mxCell>
        <mxCell id="79Ni32l7-_GGTcahSO0a-97" value="set to true" style="shape=partialRectangle;html=1;whiteSpace=wrap;connectable=0;fillColor=none;top=0;left=0;bottom=0;right=0;overflow=hidden;fontStyle=0;" parent="79Ni32l7-_GGTcahSO0a-93" vertex="1">
          <mxGeometry x="500" width="200" height="40" as="geometry" />
        </mxCell>
        <mxCell id="79Ni32l7-_GGTcahSO0a-172" style="shape=partialRectangle;html=1;whiteSpace=wrap;connectable=0;fillColor=none;top=0;left=0;bottom=0;right=0;overflow=hidden;fontStyle=0;" parent="79Ni32l7-_GGTcahSO0a-93" vertex="1">
          <mxGeometry x="700" width="200" height="40" as="geometry" />
        </mxCell>
        <mxCell id="79Ni32l7-_GGTcahSO0a-156" style="shape=partialRectangle;html=1;whiteSpace=wrap;collapsible=0;dropTarget=0;pointerEvents=0;fillColor=none;top=0;left=0;bottom=0;right=0;points=[[0,0.5],[1,0.5]];portConstraint=eastwest;" parent="79Ni32l7-_GGTcahSO0a-73" vertex="1">
          <mxGeometry y="440" width="900" height="40" as="geometry" />
        </mxCell>
        <mxCell id="79Ni32l7-_GGTcahSO0a-157" value="dist" style="shape=partialRectangle;html=1;whiteSpace=wrap;connectable=0;fillColor=none;top=0;left=0;bottom=0;right=0;overflow=hidden;fontStyle=1;fontColor=#FF0000;" parent="79Ni32l7-_GGTcahSO0a-156" vertex="1">
          <mxGeometry width="200" height="40" as="geometry" />
        </mxCell>
        <mxCell id="79Ni32l7-_GGTcahSO0a-158" value="undefined" style="shape=partialRectangle;html=1;whiteSpace=wrap;connectable=0;fillColor=none;top=0;left=0;bottom=0;right=0;overflow=hidden;fontStyle=1;fontColor=#FF0000;" parent="79Ni32l7-_GGTcahSO0a-156" vertex="1">
          <mxGeometry x="200" width="100" height="40" as="geometry" />
        </mxCell>
        <mxCell id="79Ni32l7-_GGTcahSO0a-159" value="null" style="shape=partialRectangle;html=1;whiteSpace=wrap;connectable=0;fillColor=none;top=0;left=0;bottom=0;right=0;overflow=hidden;fontStyle=1;fontColor=#FF0000;" parent="79Ni32l7-_GGTcahSO0a-156" vertex="1">
          <mxGeometry x="300" width="100" height="40" as="geometry" />
        </mxCell>
        <mxCell id="79Ni32l7-_GGTcahSO0a-160" value="510" style="shape=partialRectangle;html=1;whiteSpace=wrap;connectable=0;fillColor=none;top=0;left=0;bottom=0;right=0;overflow=hidden;fontStyle=1;fontColor=#FF0000;" parent="79Ni32l7-_GGTcahSO0a-156" vertex="1">
          <mxGeometry x="400" width="100" height="40" as="geometry" />
        </mxCell>
        <mxCell id="79Ni32l7-_GGTcahSO0a-161" value="distance returned from the server" style="shape=partialRectangle;html=1;whiteSpace=wrap;connectable=0;fillColor=none;top=0;left=0;bottom=0;right=0;overflow=hidden;fontStyle=1;fontColor=#FF0000;" parent="79Ni32l7-_GGTcahSO0a-156" vertex="1">
          <mxGeometry x="500" width="200" height="40" as="geometry" />
        </mxCell>
        <mxCell id="79Ni32l7-_GGTcahSO0a-173" value="&lt;span&gt;Need to delete, shouldn&#39;t be a state variable&lt;/span&gt;" style="shape=partialRectangle;html=1;whiteSpace=wrap;connectable=0;fillColor=none;top=0;left=0;bottom=0;right=0;overflow=hidden;fontStyle=1;fontColor=#FF0000;" parent="79Ni32l7-_GGTcahSO0a-156" vertex="1">
          <mxGeometry x="700" width="200" height="40" as="geometry" />
        </mxCell>
        <mxCell id="79Ni32l7-_GGTcahSO0a-150" style="shape=partialRectangle;html=1;whiteSpace=wrap;collapsible=0;dropTarget=0;pointerEvents=0;fillColor=none;top=0;left=0;bottom=0;right=0;points=[[0,0.5],[1,0.5]];portConstraint=eastwest;" parent="79Ni32l7-_GGTcahSO0a-73" vertex="1">
          <mxGeometry y="480" width="900" height="40" as="geometry" />
        </mxCell>
        <mxCell id="79Ni32l7-_GGTcahSO0a-151" value="searchTerm" style="shape=partialRectangle;html=1;whiteSpace=wrap;connectable=0;fillColor=none;top=0;left=0;bottom=0;right=0;overflow=hidden;fontStyle=0;" parent="79Ni32l7-_GGTcahSO0a-150" vertex="1">
          <mxGeometry width="200" height="40" as="geometry" />
        </mxCell>
        <mxCell id="79Ni32l7-_GGTcahSO0a-152" value="string" style="shape=partialRectangle;html=1;whiteSpace=wrap;connectable=0;fillColor=none;top=0;left=0;bottom=0;right=0;overflow=hidden;fontStyle=0;" parent="79Ni32l7-_GGTcahSO0a-150" vertex="1">
          <mxGeometry x="200" width="100" height="40" as="geometry" />
        </mxCell>
        <mxCell id="79Ni32l7-_GGTcahSO0a-153" value="&quot; &quot;" style="shape=partialRectangle;html=1;whiteSpace=wrap;connectable=0;fillColor=none;top=0;left=0;bottom=0;right=0;overflow=hidden;fontStyle=0;" parent="79Ni32l7-_GGTcahSO0a-150" vertex="1">
          <mxGeometry x="300" width="100" height="40" as="geometry" />
        </mxCell>
        <mxCell id="79Ni32l7-_GGTcahSO0a-154" value="138" style="shape=partialRectangle;html=1;whiteSpace=wrap;connectable=0;fillColor=none;top=0;left=0;bottom=0;right=0;overflow=hidden;fontStyle=0;" parent="79Ni32l7-_GGTcahSO0a-150" vertex="1">
          <mxGeometry x="400" width="100" height="40" as="geometry" />
        </mxCell>
        <mxCell id="79Ni32l7-_GGTcahSO0a-155" value="search term in find box" style="shape=partialRectangle;html=1;whiteSpace=wrap;connectable=0;fillColor=none;top=0;left=0;bottom=0;right=0;overflow=hidden;fontStyle=0;" parent="79Ni32l7-_GGTcahSO0a-150" vertex="1">
          <mxGeometry x="500" width="200" height="40" as="geometry" />
        </mxCell>
        <mxCell id="79Ni32l7-_GGTcahSO0a-174" value="&lt;font color=&quot;#ff0000&quot;&gt;&lt;b&gt;Possible duplication with locationResutlts below&lt;/b&gt;&lt;/font&gt;" style="shape=partialRectangle;html=1;whiteSpace=wrap;connectable=0;fillColor=none;top=0;left=0;bottom=0;right=0;overflow=hidden;fontStyle=0;" parent="79Ni32l7-_GGTcahSO0a-150" vertex="1">
          <mxGeometry x="700" width="200" height="40" as="geometry" />
        </mxCell>
        <mxCell id="79Ni32l7-_GGTcahSO0a-144" style="shape=partialRectangle;html=1;whiteSpace=wrap;collapsible=0;dropTarget=0;pointerEvents=0;fillColor=none;top=0;left=0;bottom=0;right=0;points=[[0,0.5],[1,0.5]];portConstraint=eastwest;" parent="79Ni32l7-_GGTcahSO0a-73" vertex="1">
          <mxGeometry y="520" width="900" height="40" as="geometry" />
        </mxCell>
        <mxCell id="79Ni32l7-_GGTcahSO0a-145" value="loacationResults" style="shape=partialRectangle;html=1;whiteSpace=wrap;connectable=0;fillColor=none;top=0;left=0;bottom=0;right=0;overflow=hidden;fontStyle=0;" parent="79Ni32l7-_GGTcahSO0a-144" vertex="1">
          <mxGeometry width="200" height="40" as="geometry" />
        </mxCell>
        <mxCell id="79Ni32l7-_GGTcahSO0a-146" value="array" style="shape=partialRectangle;html=1;whiteSpace=wrap;connectable=0;fillColor=none;top=0;left=0;bottom=0;right=0;overflow=hidden;fontStyle=0;" parent="79Ni32l7-_GGTcahSO0a-144" vertex="1">
          <mxGeometry x="200" width="100" height="40" as="geometry" />
        </mxCell>
        <mxCell id="79Ni32l7-_GGTcahSO0a-147" value="[ ]" style="shape=partialRectangle;html=1;whiteSpace=wrap;connectable=0;fillColor=none;top=0;left=0;bottom=0;right=0;overflow=hidden;fontStyle=0;" parent="79Ni32l7-_GGTcahSO0a-144" vertex="1">
          <mxGeometry x="300" width="100" height="40" as="geometry" />
        </mxCell>
        <mxCell id="79Ni32l7-_GGTcahSO0a-148" value="132&lt;br&gt;113" style="shape=partialRectangle;html=1;whiteSpace=wrap;connectable=0;fillColor=none;top=0;left=0;bottom=0;right=0;overflow=hidden;fontStyle=0;" parent="79Ni32l7-_GGTcahSO0a-144" vertex="1">
          <mxGeometry x="400" width="100" height="40" as="geometry" />
        </mxCell>
        <mxCell id="79Ni32l7-_GGTcahSO0a-149" value="resets to default value&lt;br&gt;places returned from server" style="shape=partialRectangle;html=1;whiteSpace=wrap;connectable=0;fillColor=none;top=0;left=0;bottom=0;right=0;overflow=hidden;fontStyle=0;" parent="79Ni32l7-_GGTcahSO0a-144" vertex="1">
          <mxGeometry x="500" width="200" height="40" as="geometry" />
        </mxCell>
        <mxCell id="79Ni32l7-_GGTcahSO0a-175" style="shape=partialRectangle;html=1;whiteSpace=wrap;connectable=0;fillColor=none;top=0;left=0;bottom=0;right=0;overflow=hidden;fontStyle=0;" parent="79Ni32l7-_GGTcahSO0a-144" vertex="1">
          <mxGeometry x="700" width="200" height="40" as="geometry" />
        </mxCell>
        <mxCell id="SNinnTlMiJOWfoq2gWIb-1" style="shape=partialRectangle;html=1;whiteSpace=wrap;collapsible=0;dropTarget=0;pointerEvents=0;fillColor=none;top=0;left=0;bottom=0;right=0;points=[[0,0.5],[1,0.5]];portConstraint=eastwest;" parent="79Ni32l7-_GGTcahSO0a-73" vertex="1">
          <mxGeometry y="560" width="900" height="40" as="geometry" />
        </mxCell>
        <mxCell id="SNinnTlMiJOWfoq2gWIb-2" value="foundResults" style="shape=partialRectangle;html=1;whiteSpace=wrap;connectable=0;fillColor=none;top=0;left=0;bottom=0;right=0;overflow=hidden;fontStyle=0;" parent="SNinnTlMiJOWfoq2gWIb-1" vertex="1">
          <mxGeometry width="200" height="40" as="geometry" />
        </mxCell>
        <mxCell id="SNinnTlMiJOWfoq2gWIb-3" value="Object" style="shape=partialRectangle;html=1;whiteSpace=wrap;connectable=0;fillColor=none;top=0;left=0;bottom=0;right=0;overflow=hidden;fontStyle=0;" parent="SNinnTlMiJOWfoq2gWIb-1" vertex="1">
          <mxGeometry x="200" width="100" height="40" as="geometry" />
        </mxCell>
        <mxCell id="SNinnTlMiJOWfoq2gWIb-4" value="null" style="shape=partialRectangle;html=1;whiteSpace=wrap;connectable=0;fillColor=none;top=0;left=0;bottom=0;right=0;overflow=hidden;fontStyle=0;" parent="SNinnTlMiJOWfoq2gWIb-1" vertex="1">
          <mxGeometry x="300" width="100" height="40" as="geometry" />
        </mxCell>
        <mxCell id="SNinnTlMiJOWfoq2gWIb-5" value="132" style="shape=partialRectangle;html=1;whiteSpace=wrap;connectable=0;fillColor=none;top=0;left=0;bottom=0;right=0;overflow=hidden;fontStyle=0;" parent="SNinnTlMiJOWfoq2gWIb-1" vertex="1">
          <mxGeometry x="400" width="100" height="40" as="geometry" />
        </mxCell>
        <mxCell id="SNinnTlMiJOWfoq2gWIb-6" value="array of places from server" style="shape=partialRectangle;html=1;whiteSpace=wrap;connectable=0;fillColor=none;top=0;left=0;bottom=0;right=0;overflow=hidden;fontStyle=0;" parent="SNinnTlMiJOWfoq2gWIb-1" vertex="1">
          <mxGeometry x="500" width="200" height="40" as="geometry" />
        </mxCell>
        <mxCell id="SNinnTlMiJOWfoq2gWIb-7" style="shape=partialRectangle;html=1;whiteSpace=wrap;connectable=0;fillColor=none;top=0;left=0;bottom=0;right=0;overflow=hidden;fontStyle=0;" parent="SNinnTlMiJOWfoq2gWIb-1" vertex="1">
          <mxGeometry x="700" width="200" height="40" as="geometry" />
        </mxCell>
        <mxCell id="WQFZDeMwcHJbhIOVfOHr-86" style="shape=partialRectangle;html=1;whiteSpace=wrap;collapsible=0;dropTarget=0;pointerEvents=0;fillColor=none;top=0;left=0;bottom=0;right=0;points=[[0,0.5],[1,0.5]];portConstraint=eastwest;" vertex="1" parent="79Ni32l7-_GGTcahSO0a-73">
          <mxGeometry y="600" width="900" height="50" as="geometry" />
        </mxCell>
        <mxCell id="WQFZDeMwcHJbhIOVfOHr-87" value="openFindOptions" style="shape=partialRectangle;html=1;whiteSpace=wrap;connectable=0;fillColor=none;top=0;left=0;bottom=0;right=0;overflow=hidden;fontStyle=0;" vertex="1" parent="WQFZDeMwcHJbhIOVfOHr-86">
          <mxGeometry width="200" height="50" as="geometry" />
        </mxCell>
        <mxCell id="WQFZDeMwcHJbhIOVfOHr-88" value="boolean" style="shape=partialRectangle;html=1;whiteSpace=wrap;connectable=0;fillColor=none;top=0;left=0;bottom=0;right=0;overflow=hidden;fontStyle=0;" vertex="1" parent="WQFZDeMwcHJbhIOVfOHr-86">
          <mxGeometry x="200" width="100" height="50" as="geometry" />
        </mxCell>
        <mxCell id="WQFZDeMwcHJbhIOVfOHr-89" value="false" style="shape=partialRectangle;html=1;whiteSpace=wrap;connectable=0;fillColor=none;top=0;left=0;bottom=0;right=0;overflow=hidden;fontStyle=0;" vertex="1" parent="WQFZDeMwcHJbhIOVfOHr-86">
          <mxGeometry x="300" width="100" height="50" as="geometry" />
        </mxCell>
        <mxCell id="WQFZDeMwcHJbhIOVfOHr-90" value="138&lt;br&gt;168&lt;br&gt;255" style="shape=partialRectangle;html=1;whiteSpace=wrap;connectable=0;fillColor=none;top=0;left=0;bottom=0;right=0;overflow=hidden;fontStyle=0;" vertex="1" parent="WQFZDeMwcHJbhIOVfOHr-86">
          <mxGeometry x="400" width="100" height="50" as="geometry" />
        </mxCell>
        <mxCell id="WQFZDeMwcHJbhIOVfOHr-91" value="undefined&lt;br&gt;true&lt;br&gt;undefined" style="shape=partialRectangle;html=1;whiteSpace=wrap;connectable=0;fillColor=none;top=0;left=0;bottom=0;right=0;overflow=hidden;fontStyle=0;" vertex="1" parent="WQFZDeMwcHJbhIOVfOHr-86">
          <mxGeometry x="500" width="200" height="50" as="geometry" />
        </mxCell>
        <mxCell id="WQFZDeMwcHJbhIOVfOHr-92" style="shape=partialRectangle;html=1;whiteSpace=wrap;connectable=0;fillColor=none;top=0;left=0;bottom=0;right=0;overflow=hidden;fontStyle=0;" vertex="1" parent="WQFZDeMwcHJbhIOVfOHr-86">
          <mxGeometry x="700" width="200" height="50" as="geometry" />
        </mxCell>
        <mxCell id="WQFZDeMwcHJbhIOVfOHr-79" style="shape=partialRectangle;html=1;whiteSpace=wrap;collapsible=0;dropTarget=0;pointerEvents=0;fillColor=none;top=0;left=0;bottom=0;right=0;points=[[0,0.5],[1,0.5]];portConstraint=eastwest;" vertex="1" parent="79Ni32l7-_GGTcahSO0a-73">
          <mxGeometry y="650" width="900" height="40" as="geometry" />
        </mxCell>
        <mxCell id="WQFZDeMwcHJbhIOVfOHr-80" value="countryFilters" style="shape=partialRectangle;html=1;whiteSpace=wrap;connectable=0;fillColor=none;top=0;left=0;bottom=0;right=0;overflow=hidden;fontStyle=0;" vertex="1" parent="WQFZDeMwcHJbhIOVfOHr-79">
          <mxGeometry width="200" height="40" as="geometry" />
        </mxCell>
        <mxCell id="WQFZDeMwcHJbhIOVfOHr-81" value="array" style="shape=partialRectangle;html=1;whiteSpace=wrap;connectable=0;fillColor=none;top=0;left=0;bottom=0;right=0;overflow=hidden;fontStyle=0;" vertex="1" parent="WQFZDeMwcHJbhIOVfOHr-79">
          <mxGeometry x="200" width="100" height="40" as="geometry" />
        </mxCell>
        <mxCell id="WQFZDeMwcHJbhIOVfOHr-82" value="[ ]" style="shape=partialRectangle;html=1;whiteSpace=wrap;connectable=0;fillColor=none;top=0;left=0;bottom=0;right=0;overflow=hidden;fontStyle=0;" vertex="1" parent="WQFZDeMwcHJbhIOVfOHr-79">
          <mxGeometry x="300" width="100" height="40" as="geometry" />
        </mxCell>
        <mxCell id="WQFZDeMwcHJbhIOVfOHr-83" value="237" style="shape=partialRectangle;html=1;whiteSpace=wrap;connectable=0;fillColor=none;top=0;left=0;bottom=0;right=0;overflow=hidden;fontStyle=0;" vertex="1" parent="WQFZDeMwcHJbhIOVfOHr-79">
          <mxGeometry x="400" width="100" height="40" as="geometry" />
        </mxCell>
        <mxCell id="WQFZDeMwcHJbhIOVfOHr-84" value="all possible country filters" style="shape=partialRectangle;html=1;whiteSpace=wrap;connectable=0;fillColor=none;top=0;left=0;bottom=0;right=0;overflow=hidden;fontStyle=0;" vertex="1" parent="WQFZDeMwcHJbhIOVfOHr-79">
          <mxGeometry x="500" width="200" height="40" as="geometry" />
        </mxCell>
        <mxCell id="WQFZDeMwcHJbhIOVfOHr-85" style="shape=partialRectangle;html=1;whiteSpace=wrap;connectable=0;fillColor=none;top=0;left=0;bottom=0;right=0;overflow=hidden;fontStyle=0;" vertex="1" parent="WQFZDeMwcHJbhIOVfOHr-79">
          <mxGeometry x="700" width="200" height="40" as="geometry" />
        </mxCell>
        <mxCell id="WQFZDeMwcHJbhIOVfOHr-72" style="shape=partialRectangle;html=1;whiteSpace=wrap;collapsible=0;dropTarget=0;pointerEvents=0;fillColor=none;top=0;left=0;bottom=0;right=0;points=[[0,0.5],[1,0.5]];portConstraint=eastwest;" vertex="1" parent="79Ni32l7-_GGTcahSO0a-73">
          <mxGeometry y="690" width="900" height="40" as="geometry" />
        </mxCell>
        <mxCell id="WQFZDeMwcHJbhIOVfOHr-73" value="typeFilters" style="shape=partialRectangle;html=1;whiteSpace=wrap;connectable=0;fillColor=none;top=0;left=0;bottom=0;right=0;overflow=hidden;fontStyle=0;" vertex="1" parent="WQFZDeMwcHJbhIOVfOHr-72">
          <mxGeometry width="200" height="40" as="geometry" />
        </mxCell>
        <mxCell id="WQFZDeMwcHJbhIOVfOHr-74" value="array" style="shape=partialRectangle;html=1;whiteSpace=wrap;connectable=0;fillColor=none;top=0;left=0;bottom=0;right=0;overflow=hidden;fontStyle=0;" vertex="1" parent="WQFZDeMwcHJbhIOVfOHr-72">
          <mxGeometry x="200" width="100" height="40" as="geometry" />
        </mxCell>
        <mxCell id="WQFZDeMwcHJbhIOVfOHr-75" value="[ ]" style="shape=partialRectangle;html=1;whiteSpace=wrap;connectable=0;fillColor=none;top=0;left=0;bottom=0;right=0;overflow=hidden;fontStyle=0;" vertex="1" parent="WQFZDeMwcHJbhIOVfOHr-72">
          <mxGeometry x="300" width="100" height="40" as="geometry" />
        </mxCell>
        <mxCell id="WQFZDeMwcHJbhIOVfOHr-76" value="237" style="shape=partialRectangle;html=1;whiteSpace=wrap;connectable=0;fillColor=none;top=0;left=0;bottom=0;right=0;overflow=hidden;fontStyle=0;" vertex="1" parent="WQFZDeMwcHJbhIOVfOHr-72">
          <mxGeometry x="400" width="100" height="40" as="geometry" />
        </mxCell>
        <mxCell id="WQFZDeMwcHJbhIOVfOHr-77" value="all possible type filters" style="shape=partialRectangle;html=1;whiteSpace=wrap;connectable=0;fillColor=none;top=0;left=0;bottom=0;right=0;overflow=hidden;fontStyle=0;" vertex="1" parent="WQFZDeMwcHJbhIOVfOHr-72">
          <mxGeometry x="500" width="200" height="40" as="geometry" />
        </mxCell>
        <mxCell id="WQFZDeMwcHJbhIOVfOHr-78" style="shape=partialRectangle;html=1;whiteSpace=wrap;connectable=0;fillColor=none;top=0;left=0;bottom=0;right=0;overflow=hidden;fontStyle=0;" vertex="1" parent="WQFZDeMwcHJbhIOVfOHr-72">
          <mxGeometry x="700" width="200" height="40" as="geometry" />
        </mxCell>
        <mxCell id="WQFZDeMwcHJbhIOVfOHr-65" style="shape=partialRectangle;html=1;whiteSpace=wrap;collapsible=0;dropTarget=0;pointerEvents=0;fillColor=none;top=0;left=0;bottom=0;right=0;points=[[0,0.5],[1,0.5]];portConstraint=eastwest;" vertex="1" parent="79Ni32l7-_GGTcahSO0a-73">
          <mxGeometry y="730" width="900" height="40" as="geometry" />
        </mxCell>
        <mxCell id="WQFZDeMwcHJbhIOVfOHr-66" value="activeCountryFilters" style="shape=partialRectangle;html=1;whiteSpace=wrap;connectable=0;fillColor=none;top=0;left=0;bottom=0;right=0;overflow=hidden;fontStyle=0;" vertex="1" parent="WQFZDeMwcHJbhIOVfOHr-65">
          <mxGeometry width="200" height="40" as="geometry" />
        </mxCell>
        <mxCell id="WQFZDeMwcHJbhIOVfOHr-67" value="string" style="shape=partialRectangle;html=1;whiteSpace=wrap;connectable=0;fillColor=none;top=0;left=0;bottom=0;right=0;overflow=hidden;fontStyle=0;" vertex="1" parent="WQFZDeMwcHJbhIOVfOHr-65">
          <mxGeometry x="200" width="100" height="40" as="geometry" />
        </mxCell>
        <mxCell id="WQFZDeMwcHJbhIOVfOHr-68" value="&quot; &quot;" style="shape=partialRectangle;html=1;whiteSpace=wrap;connectable=0;fillColor=none;top=0;left=0;bottom=0;right=0;overflow=hidden;fontStyle=0;" vertex="1" parent="WQFZDeMwcHJbhIOVfOHr-65">
          <mxGeometry x="300" width="100" height="40" as="geometry" />
        </mxCell>
        <mxCell id="WQFZDeMwcHJbhIOVfOHr-69" value="240&lt;br&gt;246" style="shape=partialRectangle;html=1;whiteSpace=wrap;connectable=0;fillColor=none;top=0;left=0;bottom=0;right=0;overflow=hidden;fontStyle=0;" vertex="1" parent="WQFZDeMwcHJbhIOVfOHr-65">
          <mxGeometry x="400" width="100" height="40" as="geometry" />
        </mxCell>
        <mxCell id="WQFZDeMwcHJbhIOVfOHr-70" value="Set to default value&lt;br&gt;Set to current country filter" style="shape=partialRectangle;html=1;whiteSpace=wrap;connectable=0;fillColor=none;top=0;left=0;bottom=0;right=0;overflow=hidden;fontStyle=0;" vertex="1" parent="WQFZDeMwcHJbhIOVfOHr-65">
          <mxGeometry x="500" width="200" height="40" as="geometry" />
        </mxCell>
        <mxCell id="WQFZDeMwcHJbhIOVfOHr-71" style="shape=partialRectangle;html=1;whiteSpace=wrap;connectable=0;fillColor=none;top=0;left=0;bottom=0;right=0;overflow=hidden;fontStyle=0;" vertex="1" parent="WQFZDeMwcHJbhIOVfOHr-65">
          <mxGeometry x="700" width="200" height="40" as="geometry" />
        </mxCell>
        <mxCell id="WQFZDeMwcHJbhIOVfOHr-58" style="shape=partialRectangle;html=1;whiteSpace=wrap;collapsible=0;dropTarget=0;pointerEvents=0;fillColor=none;top=0;left=0;bottom=0;right=0;points=[[0,0.5],[1,0.5]];portConstraint=eastwest;" vertex="1" parent="79Ni32l7-_GGTcahSO0a-73">
          <mxGeometry y="770" width="900" height="40" as="geometry" />
        </mxCell>
        <mxCell id="WQFZDeMwcHJbhIOVfOHr-59" value="activeTypeFilter" style="shape=partialRectangle;html=1;whiteSpace=wrap;connectable=0;fillColor=none;top=0;left=0;bottom=0;right=0;overflow=hidden;fontStyle=0;" vertex="1" parent="WQFZDeMwcHJbhIOVfOHr-58">
          <mxGeometry width="200" height="40" as="geometry" />
        </mxCell>
        <mxCell id="WQFZDeMwcHJbhIOVfOHr-60" value="string" style="shape=partialRectangle;html=1;whiteSpace=wrap;connectable=0;fillColor=none;top=0;left=0;bottom=0;right=0;overflow=hidden;fontStyle=0;" vertex="1" parent="WQFZDeMwcHJbhIOVfOHr-58">
          <mxGeometry x="200" width="100" height="40" as="geometry" />
        </mxCell>
        <mxCell id="WQFZDeMwcHJbhIOVfOHr-61" value="&quot; &quot;" style="shape=partialRectangle;html=1;whiteSpace=wrap;connectable=0;fillColor=none;top=0;left=0;bottom=0;right=0;overflow=hidden;fontStyle=0;" vertex="1" parent="WQFZDeMwcHJbhIOVfOHr-58">
          <mxGeometry x="300" width="100" height="40" as="geometry" />
        </mxCell>
        <mxCell id="WQFZDeMwcHJbhIOVfOHr-62" value="240&lt;br&gt;251" style="shape=partialRectangle;html=1;whiteSpace=wrap;connectable=0;fillColor=none;top=0;left=0;bottom=0;right=0;overflow=hidden;fontStyle=0;" vertex="1" parent="WQFZDeMwcHJbhIOVfOHr-58">
          <mxGeometry x="400" width="100" height="40" as="geometry" />
        </mxCell>
        <mxCell id="WQFZDeMwcHJbhIOVfOHr-63" value="Set to default value&lt;br&gt;Set to current country filter" style="shape=partialRectangle;html=1;whiteSpace=wrap;connectable=0;fillColor=none;top=0;left=0;bottom=0;right=0;overflow=hidden;fontStyle=0;" vertex="1" parent="WQFZDeMwcHJbhIOVfOHr-58">
          <mxGeometry x="500" width="200" height="40" as="geometry" />
        </mxCell>
        <mxCell id="WQFZDeMwcHJbhIOVfOHr-64" style="shape=partialRectangle;html=1;whiteSpace=wrap;connectable=0;fillColor=none;top=0;left=0;bottom=0;right=0;overflow=hidden;fontStyle=0;" vertex="1" parent="WQFZDeMwcHJbhIOVfOHr-58">
          <mxGeometry x="700" width="200" height="40" as="geometry" />
        </mxCell>
        <mxCell id="WQFZDeMwcHJbhIOVfOHr-51" style="shape=partialRectangle;html=1;whiteSpace=wrap;collapsible=0;dropTarget=0;pointerEvents=0;fillColor=none;top=0;left=0;bottom=0;right=0;points=[[0,0.5],[1,0.5]];portConstraint=eastwest;" vertex="1" parent="79Ni32l7-_GGTcahSO0a-73">
          <mxGeometry y="810" width="900" height="40" as="geometry" />
        </mxCell>
        <mxCell id="WQFZDeMwcHJbhIOVfOHr-52" value="loadTripToggleOpen" style="shape=partialRectangle;html=1;whiteSpace=wrap;connectable=0;fillColor=none;top=0;left=0;bottom=0;right=0;overflow=hidden;fontStyle=0;" vertex="1" parent="WQFZDeMwcHJbhIOVfOHr-51">
          <mxGeometry width="200" height="40" as="geometry" />
        </mxCell>
        <mxCell id="WQFZDeMwcHJbhIOVfOHr-53" value="boolean" style="shape=partialRectangle;html=1;whiteSpace=wrap;connectable=0;fillColor=none;top=0;left=0;bottom=0;right=0;overflow=hidden;fontStyle=0;" vertex="1" parent="WQFZDeMwcHJbhIOVfOHr-51">
          <mxGeometry x="200" width="100" height="40" as="geometry" />
        </mxCell>
        <mxCell id="WQFZDeMwcHJbhIOVfOHr-54" value="false" style="shape=partialRectangle;html=1;whiteSpace=wrap;connectable=0;fillColor=none;top=0;left=0;bottom=0;right=0;overflow=hidden;fontStyle=0;" vertex="1" parent="WQFZDeMwcHJbhIOVfOHr-51">
          <mxGeometry x="300" width="100" height="40" as="geometry" />
        </mxCell>
        <mxCell id="WQFZDeMwcHJbhIOVfOHr-55" value="364" style="shape=partialRectangle;html=1;whiteSpace=wrap;connectable=0;fillColor=none;top=0;left=0;bottom=0;right=0;overflow=hidden;fontStyle=0;" vertex="1" parent="WQFZDeMwcHJbhIOVfOHr-51">
          <mxGeometry x="400" width="100" height="40" as="geometry" />
        </mxCell>
        <mxCell id="WQFZDeMwcHJbhIOVfOHr-56" value="Set to next value, ie if true then set false" style="shape=partialRectangle;html=1;whiteSpace=wrap;connectable=0;fillColor=none;top=0;left=0;bottom=0;right=0;overflow=hidden;fontStyle=0;" vertex="1" parent="WQFZDeMwcHJbhIOVfOHr-51">
          <mxGeometry x="500" width="200" height="40" as="geometry" />
        </mxCell>
        <mxCell id="WQFZDeMwcHJbhIOVfOHr-57" style="shape=partialRectangle;html=1;whiteSpace=wrap;connectable=0;fillColor=none;top=0;left=0;bottom=0;right=0;overflow=hidden;fontStyle=0;" vertex="1" parent="WQFZDeMwcHJbhIOVfOHr-51">
          <mxGeometry x="700" width="200" height="40" as="geometry" />
        </mxCell>
        <mxCell id="SNinnTlMiJOWfoq2gWIb-9" value="tripItineraryHelperFunction" style="rounded=1;whiteSpace=wrap;html=1;" parent="1" vertex="1">
          <mxGeometry x="-60" y="710" width="170" height="60" as="geometry" />
        </mxCell>
      </root>
    </mxGraphModel>
  </diagram>
</mxfile>
